<?xml version="1.0" encoding="UTF-8" standalone="no"?>
<svg width="120px" height="13px" viewBox="0 0 120 13" version="1.1" xmlns="http://www.w3.org/2000/svg" xmlns:xlink="http://www.w3.org/1999/xlink">
    <!-- Generator: Sketch 3.8.3 (29802) - http://www.bohemiancoding.com/sketch -->
    <title>Powered-by-PingIdentity</title>
    <desc>Created with Sketch.</desc>
    <defs>
        <polygon id="path-1" points="0 12.4204 119.183 12.4204 119.183 0.0004 0 0.0004"></polygon>
    </defs>
    <g id="Page-1" stroke="none" stroke-width="1" fill="none" fill-rule="evenodd">
        <g id="Powered-by-PingIdentity">
            <g id="Page-1">
                <path d="M59.473,4.8779 L60.446,4.8779 C61.205,4.8779 61.432,4.7849 61.684,4.3979 C61.845,4.1459 61.911,3.8789 61.911,3.4379 C61.911,2.5719 61.445,2.0529 60.658,2.0529 L59.473,2.0529 L59.473,4.8779 L59.473,4.8779 Z M60.045,0.5469 C61.618,0.5469 62.098,0.7069 62.618,0.9999 C63.484,1.4799 63.95,2.3329 63.95,3.3989 C63.95,4.6249 63.364,5.6109 62.351,6.0909 C61.925,6.2909 61.524,6.3969 60.498,6.3969 L59.473,6.3969 L59.473,9.8089 L57.607,9.8089 L57.607,0.5469 L60.045,0.5469 L60.045,0.5469 Z" id="Fill-1" fill="#FFFFFF"></path>
                <path d="M66.362,2.825 L66.362,9.809 L64.577,9.809 L64.577,3.105 L66.362,2.825 Z M66.576,1.106 C66.576,1.716 66.082,2.206 65.469,2.206 C64.87,2.206 64.376,1.716 64.376,1.106 C64.376,0.497 64.883,0.007 65.496,0.007 C66.096,0.007 66.576,0.497 66.576,1.106 L66.576,1.106 Z" id="Fill-3" fill="#FFFFFF"></path>
                <path d="M68.7734,2.8127 C68.9344,3.0927 69.0274,3.3857 69.0274,3.6647 C69.2934,3.4787 69.5204,3.3177 69.8134,3.1587 C70.1734,2.9717 70.6404,2.8657 71.0394,2.8657 C71.7994,2.8657 72.4654,3.2657 72.6784,3.8527 C72.7724,4.1047 72.8114,4.3977 72.8114,4.8247 L72.8114,9.8087 L71.0524,9.8087 L71.0524,5.3707 C71.0524,4.5977 70.9194,4.3717 70.4534,4.3717 C70.0934,4.3717 69.6274,4.6117 69.2144,4.9847 L69.2144,9.8087 L67.4284,9.8087 L67.4284,4.8647 C67.4284,4.2787 67.3474,3.7187 67.1884,3.2657 L68.7734,2.8127 Z" id="Fill-5" fill="#FFFFFF"></path>
                <path d="M75.2907,5.1843 C75.2907,5.8783 75.7177,6.1573 76.3437,6.1573 C77.0507,6.1573 77.4367,5.8113 77.4367,5.1843 C77.4367,4.5453 77.0377,4.1713 76.3567,4.1713 C75.6777,4.1713 75.2907,4.5453 75.2907,5.1843 L75.2907,5.1843 Z M80.5947,3.7313 C80.2077,4.0913 79.8357,4.2383 79.3427,4.2383 C79.1687,4.2383 78.9817,4.2123 78.8757,4.1983 C79.1417,4.5173 79.2757,4.8643 79.2757,5.3173 C79.2757,6.4903 78.2097,7.3443 76.7567,7.3443 C76.6767,7.3443 76.6237,7.3443 76.4897,7.3303 C76.0377,7.5433 75.7837,7.7033 75.7837,7.8903 C75.7837,7.9823 75.8907,8.0503 76.0777,8.0503 L77.0377,8.0633 C78.0757,8.0763 78.6227,8.2363 79.1017,8.6763 C79.5017,9.0493 79.6887,9.5153 79.6887,10.1293 C79.6887,10.7023 79.5157,11.1423 79.1417,11.5413 C78.5427,12.1813 77.5157,12.4203 76.4497,12.4203 C75.4777,12.4203 74.4777,12.2603 73.8647,11.6883 C73.4917,11.3413 73.3057,10.9413 73.3057,10.4753 C73.3057,10.1023 73.3987,9.9153 73.4657,9.7823 L75.1177,9.7823 C75.0507,9.9423 75.0377,10.0353 75.0377,10.2213 C75.0377,10.7683 75.4917,11.0613 76.3177,11.0613 C76.7707,11.0613 77.1567,11.0083 77.4367,10.8343 C77.7027,10.6743 77.8757,10.4213 77.8757,10.1423 C77.8757,9.5293 77.3307,9.3423 76.6237,9.3293 L75.8637,9.3153 C75.0647,9.3013 74.5447,9.2363 74.2247,9.1023 C73.9047,8.9823 73.7047,8.6763 73.7047,8.2103 C73.7047,7.7703 73.8377,7.3563 74.9577,7.0643 C73.9717,6.8103 73.4917,6.1843 73.4917,5.1713 C73.4917,3.7713 74.6247,2.8663 76.3707,2.8663 C76.7567,2.8663 77.1027,2.9193 77.5967,3.0383 C77.9687,3.1313 78.2097,3.1853 78.4357,3.1853 C78.9287,3.1853 79.4357,2.9723 79.8487,2.5983 L80.5947,3.7313 Z" id="Fill-7" fill="#FFFFFF"></path>
                <mask id="mask-2" fill="white">
                    <use xlink:href="#path-1"></use>
                </mask>
                <g id="Clip-10"></g>
                <polygon id="Fill-9" fill="#FFFFFF" mask="url(#mask-2)" points="81.399 9.6974 82.462 9.6974 82.462 0.5844 81.399 0.5844"></polygon>
                <path d="M87.4037,8.0097 C87.4037,8.0097 87.2837,8.2887 87.0047,8.4877 C86.5797,8.7937 86.2737,8.9127 85.7307,8.9127 C85.1187,8.9127 84.7067,8.6877 84.4017,8.1427 C84.1887,7.7577 84.1357,7.1857 84.1357,6.4157 C84.1357,5.4857 84.2417,5.0077 84.5607,4.5027 C84.8397,4.0517 85.2787,3.8117 85.7967,3.8117 C86.5797,3.8117 87.0717,4.0377 87.4037,4.5027 L87.4037,8.0097 Z M88.4527,0.1717 L87.4167,-0.0003 L87.4167,2.7767 C87.4167,3.2547 87.4297,3.7987 87.4297,3.7987 C87.0317,3.2677 86.3807,2.9617 85.6367,2.9617 C85.1587,2.9617 84.7867,3.0817 84.3617,3.3737 C83.4587,3.9977 82.9927,5.0337 82.9927,6.4427 C82.9927,8.5537 83.9767,9.7897 85.6897,9.7897 C86.4607,9.7897 86.9657,9.5637 87.4427,9.0197 C87.4567,9.3637 87.5897,9.6967 87.5897,9.6967 L88.6527,9.6967 C88.5057,9.3117 88.4527,8.7007 88.4527,7.5587 L88.4527,0.1717 Z" id="Fill-11" fill="#FFFFFF" mask="url(#mask-2)"></path>
                <path d="M90.38,5.7778 C90.432,4.4098 90.964,3.7188 91.907,3.7188 C92.412,3.7188 92.876,3.9448 93.102,4.3028 C93.301,4.6228 93.395,5.0608 93.408,5.7778 L90.38,5.7778 Z M91.96,2.9088 C91.163,2.9088 90.513,3.2008 89.98,3.8248 C89.423,4.4898 89.184,5.2068 89.184,6.3228 C89.184,8.5148 90.286,9.8428 92.12,9.8428 C92.97,9.8428 93.767,9.5508 94.351,9.0188 L93.952,8.3548 C93.488,8.7798 92.97,8.9788 92.332,8.9788 C91.667,8.9788 91.056,8.7408 90.685,8.1698 C90.459,7.8248 90.38,7.3458 90.38,6.7218 L90.38,6.5618 L94.51,6.5618 L94.51,6.4158 C94.484,4.8358 94.324,4.2108 93.754,3.6258 C93.301,3.1608 92.677,2.9088 91.96,2.9088 L91.96,2.9088 Z" id="Fill-12" fill="#FFFFFF" mask="url(#mask-2)"></path>
                <path d="M98.4026,2.9354 C97.6976,2.9354 97.0076,3.2674 96.3176,3.9584 C96.3176,3.4124 96.0776,2.9214 96.0776,2.9214 L95.0686,3.2014 C95.0686,3.2014 95.3206,3.6524 95.3206,4.5954 L95.3206,9.6974 L96.3306,9.6974 L96.3306,4.7684 C96.8086,4.2644 97.6316,3.8384 98.1636,3.8384 C98.4686,3.8384 98.7476,3.9454 98.8946,4.1174 C99.0796,4.3434 99.1336,4.5164 99.1336,5.2204 L99.1336,9.6974 L100.1836,9.6974 L100.1836,4.6754 C100.1836,4.4094 100.1296,4.1444 100.0236,3.9054 C99.7576,3.3204 99.1196,2.9354 98.4026,2.9354" id="Fill-13" fill="#FFFFFF" mask="url(#mask-2)"></path>
                <path d="M102.7336,3.0813 C102.7336,2.2043 102.8666,1.1683 102.8666,1.1683 L101.7766,1.4083 C101.7766,1.4083 101.6706,2.4433 101.6706,3.0813 L100.8076,3.0813 L100.8076,3.8653 L101.6706,3.8653 L101.6706,8.4083 C101.6706,9.0723 101.8426,9.4973 102.3086,9.7233 C102.5606,9.8433 102.8266,9.9093 103.1716,9.9093 C103.6356,9.9093 104.0086,9.8163 104.3406,9.6433 L104.1946,8.9793 C104.0086,9.0723 103.8366,9.1123 103.5436,9.1123 C102.8926,9.1123 102.6936,8.8603 102.6936,8.1293 L102.6936,3.8653 L105.5626,3.8653 L105.5626,9.6973 L106.6376,9.6973 L106.6376,2.9353 L105.7286,3.0813 L102.7336,3.0813 Z" id="Fill-14" fill="#FFFFFF" mask="url(#mask-2)"></path>
                <path d="M110.5471,3.865 L110.8661,3.081 L109.2051,3.081 C109.2051,2.205 109.3371,1.169 109.3371,1.169 L108.2481,1.408 C108.2481,1.408 108.1421,2.444 108.1421,3.081 L107.2791,3.081 L107.2791,3.865 L108.1421,3.865 L108.1421,8.408 C108.1421,9.073 108.3151,9.498 108.7791,9.723 C109.0321,9.843 109.2971,9.909 109.6421,9.909 C110.1081,9.909 110.4791,9.816 110.8121,9.644 L110.6661,8.979 C110.4791,9.073 110.3071,9.113 110.0151,9.113 C109.3641,9.113 109.1651,8.86 109.1651,8.129 L109.1651,3.865 L110.5471,3.865 Z" id="Fill-15" fill="#FFFFFF" mask="url(#mask-2)"></path>
                <path d="M114.4386,7.4257 C114.2786,7.9697 114.0276,8.8197 114.0276,8.8197 L113.9996,8.8197 C113.9996,8.8197 113.8006,7.7967 113.6016,7.1727 L112.2466,2.8817 L111.2226,3.2277 L112.6456,7.3727 C112.8706,8.0357 113.2296,9.3257 113.3086,9.7497 C113.3086,9.7497 113.3686,9.9767 113.4756,10.4987 C113.1926,11.2187 112.8536,11.5137 112.2076,11.7157 L112.5126,12.4207 C113.6676,12.1417 114.1996,11.2647 114.6516,9.9357 L116.9226,3.0807 L115.7396,3.0817 L114.4386,7.4257 Z" id="Fill-16" fill="#FFFFFF" mask="url(#mask-2)"></path>
                <path d="M117.8923,1.8867 L117.8923,1.5297 L118.0983,1.5297 C118.2173,1.5297 118.3523,1.5547 118.3523,1.7007 C118.3523,1.8687 118.2333,1.8867 118.0953,1.8867 L117.8923,1.8867 Z M118.5833,1.7197 C118.5833,1.4577 118.4223,1.3537 118.1233,1.3537 L117.6603,1.3537 L117.6603,2.5997 L117.8923,2.5997 L117.8923,2.0637 L118.0313,2.0637 L118.3553,2.5997 L118.5923,2.5997 L118.2573,2.0547 C118.4613,2.0357 118.5833,1.9317 118.5833,1.7197 L118.5833,1.7197 Z M118.0833,2.8677 C117.6243,2.8677 117.2513,2.4957 117.2513,1.9807 C117.2513,1.4667 117.6243,1.0947 118.0833,1.0947 C118.5433,1.0947 118.9153,1.4667 118.9153,1.9807 C118.9153,2.4957 118.5433,2.8677 118.0833,2.8677 L118.0833,2.8677 Z M118.0833,0.8817 C117.4773,0.8817 116.9843,1.3747 116.9843,1.9807 C116.9843,2.5877 117.4773,3.0807 118.0833,3.0807 C118.6903,3.0807 119.1833,2.5877 119.1833,1.9807 C119.1833,1.3747 118.6903,0.8817 118.0833,0.8817 L118.0833,0.8817 Z" id="Fill-17" fill="#FFFFFF" mask="url(#mask-2)"></path>
                <path d="M4.313,4.818 C4.313,3.991 3.717,3.417 2.846,3.417 L0.915,3.417 L0.915,6.219 L2.846,6.219 C3.717,6.219 4.313,5.645 4.313,4.818 L4.313,4.818 Z M0,9.959 L0,2.6 L2.956,2.6 C4.435,2.6 5.262,3.615 5.262,4.818 C5.262,6.02 4.413,7.036 2.956,7.036 L0.915,7.036 L0.915,9.959 L0,9.959 Z" id="Fill-18" fill="#C4C4C4" mask="url(#mask-2)"></path>
                <path d="M10.1145,7.2887 C10.1145,6.2077 9.4855,5.2367 8.3495,5.2367 C7.2125,5.2367 6.5735,6.2077 6.5735,7.2887 C6.5735,8.3807 7.2125,9.3517 8.3495,9.3517 C9.4855,9.3517 10.1145,8.3807 10.1145,7.2887 M5.7135,7.2887 C5.7135,5.7447 6.7275,4.4977 8.3495,4.4977 C9.9705,4.4977 10.9855,5.7447 10.9855,7.2887 C10.9855,8.8327 9.9705,10.0907 8.3495,10.0907 C6.7275,10.0907 5.7135,8.8327 5.7135,7.2887" id="Fill-19" fill="#C4C4C4" mask="url(#mask-2)"></path>
                <polygon id="Fill-20" fill="#C4C4C4" mask="url(#mask-2)" points="16.6656 9.9587 15.2756 5.6787 13.8856 9.9587 13.0586 9.9587 11.3596 4.6307 12.2196 4.6307 13.5216 8.8777 14.9226 4.6307 15.6286 4.6307 17.0296 8.8777 18.3316 4.6307 19.1916 4.6307 17.4926 9.9587"></polygon>
                <path d="M22.1796,5.182 C21.0436,5.182 20.4806,6.142 20.4366,6.958 L23.9336,6.958 C23.9226,6.163 23.3926,5.182 22.1796,5.182 M19.5646,7.289 C19.5646,5.744 20.6676,4.498 22.1906,4.498 C23.8006,4.498 24.7496,5.755 24.7496,7.355 L24.7496,7.564 L20.4366,7.564 C20.5026,8.568 21.2086,9.407 22.3566,9.407 C22.9626,9.407 23.5806,9.164 23.9996,8.734 L24.3966,9.275 C23.8676,9.804 23.1496,10.091 22.2786,10.091 C20.7016,10.091 19.5646,8.955 19.5646,7.289" id="Fill-21" fill="#C4C4C4" mask="url(#mask-2)"></path>
                <path d="M25.8076,9.9587 L25.8076,4.6307 L26.6346,4.6307 L26.6346,5.4907 C27.0646,4.9277 27.6826,4.5197 28.4106,4.5197 L28.4106,5.3697 C28.3116,5.3477 28.2116,5.3357 28.0796,5.3357 C27.5726,5.3357 26.8776,5.7547 26.6346,6.1857 L26.6346,9.9587 L25.8076,9.9587 Z" id="Fill-22" fill="#C4C4C4" mask="url(#mask-2)"></path>
                <path d="M31.4766,5.182 C30.3406,5.182 29.7776,6.142 29.7336,6.958 L33.2306,6.958 C33.2196,6.163 32.6906,5.182 31.4766,5.182 M28.8626,7.289 C28.8626,5.744 29.9656,4.498 31.4876,4.498 C33.0986,4.498 34.0466,5.755 34.0466,7.355 L34.0466,7.564 L29.7336,7.564 C29.8006,8.568 30.5066,9.407 31.6536,9.407 C32.2606,9.407 32.8776,9.164 33.2966,8.734 L33.6946,9.275 C33.1646,9.804 32.4476,10.091 31.5766,10.091 C29.9986,10.091 28.8626,8.955 28.8626,7.289" id="Fill-23" fill="#C4C4C4" mask="url(#mask-2)"></path>
                <path d="M38.9659,8.5133 L38.9659,6.0973 C38.6679,5.6343 38.0279,5.2373 37.3659,5.2373 C36.2959,5.2373 35.6559,6.1193 35.6559,7.2993 C35.6559,8.4803 36.2959,9.3513 37.3659,9.3513 C38.0279,9.3513 38.6679,8.9763 38.9659,8.5133 L38.9659,8.5133 Z M38.9659,9.9583 L38.9659,9.1643 C38.5689,9.7043 37.9179,10.0913 37.1679,10.0913 C35.7779,10.0913 34.7959,9.0313 34.7959,7.2993 C34.7959,5.6013 35.7669,4.4983 37.1679,4.4983 C37.8849,4.4983 38.5359,4.8513 38.9659,5.4353 L38.9659,2.6003 L39.7929,2.6003 L39.7929,9.9583 L38.9659,9.9583 Z" id="Fill-24" fill="#C4C4C4" mask="url(#mask-2)"></path>
                <path d="M46.1562,9.3512 C47.2372,9.3512 47.8772,8.4802 47.8772,7.2992 C47.8772,6.1192 47.2372,5.2372 46.1562,5.2372 C45.5052,5.2372 44.8542,5.6342 44.5672,6.0972 L44.5672,8.5132 C44.8542,8.9762 45.5052,9.3512 46.1562,9.3512 L46.1562,9.3512 Z M43.7402,9.9582 L43.7402,2.6002 L44.5672,2.6002 L44.5672,5.4352 C44.9982,4.8512 45.6372,4.4982 46.3652,4.4982 C47.7552,4.4982 48.7372,5.6012 48.7372,7.2992 C48.7372,9.0312 47.7552,10.0912 46.3652,10.0912 C45.6152,10.0912 44.9642,9.7042 44.5672,9.1642 L44.5672,9.9582 L43.7402,9.9582 Z" id="Fill-25" fill="#C4C4C4" mask="url(#mask-2)"></path>
                <path d="M49.6404,11.2932 C49.7624,11.3482 49.9604,11.3812 50.0924,11.3812 C50.4564,11.3812 50.6994,11.2602 50.8874,10.8192 L51.2404,10.0132 L49.0124,4.6302 L49.9054,4.6302 L51.6814,8.9992 L53.4464,4.6302 L54.3504,4.6302 L51.6814,11.0392 C51.3614,11.8112 50.8204,12.1092 50.1144,12.1202 C49.9384,12.1202 49.6624,12.0872 49.5084,12.0442 L49.6404,11.2932 Z" id="Fill-26" fill="#C4C4C4" mask="url(#mask-2)"></path>
            </g>
        </g>
    </g>
</svg>