<svg xmlns="http://www.w3.org/2000/svg" width="20" height="18" viewBox="0 0 20 18">
    <path fill="#000" fill-rule="nonzero" d="M16.207 4.154c-.175 0-.384.027-.583.064A5.837 5.837 0 0 0 10 0a5.838 5.838 0 0 0-5.625 4.218 3.41 3.41 0 0 0-.582-.064C1.702 4.154 0 5.862 0 7.962c0 2.099 1.702 3.807 3.793 3.807h3.884l-1.354 2.04a.69.69 0 1 0 .574 1.076h.78l-1.354 2.039A.694.694 0 0 0 6.896 18a.689.689 0 0 0 .574-.308l2.07-3.116a.69.69 0 1 0-.574-1.076h-.78l1.148-1.73h1.79l-.664 1a.691.691 0 1 0 .574 1.076h.78l-.664 1a.694.694 0 0 0 .573 1.077.689.689 0 0 0 .575-.308l1.38-2.077a.69.69 0 1 0-.574-1.076h-.78l.459-.693h3.424c2.091 0 3.793-1.708 3.793-3.807 0-2.1-1.702-3.808-3.793-3.808zm0 6.23H3.793A2.422 2.422 0 0 1 1.38 7.963a2.422 2.422 0 0 1 2.414-2.424c.096 0 .25.024.411.057v.636a.691.691 0 0 0 1.38 0V5.117A4.465 4.465 0 0 1 10 1.385a4.466 4.466 0 0 1 4.416 3.732V6.23c0 .382.31.692.69.692.38 0 .69-.31.69-.692v-.636c.162-.033.316-.057.41-.057a2.422 2.422 0 0 1 2.415 2.424 2.422 2.422 0 0 1-2.414 2.423z"/>
</svg>
