<svg xmlns="http://www.w3.org/2000/svg" width="24" height="24" viewBox="0 0 24 24">
    <g fill="#000" fill-rule="evenodd">
        <path d="M14.687 2.824a.711.711 0 0 0 .716-.706V.706A.711.711 0 0 0 14.687 0a.711.711 0 0 0-.717.706v1.412c0 .39.32.706.717.706zM23.284 8.47H21.85a.711.711 0 0 0-.717.706c0 .39.32.706.717.706h1.433A.711.711 0 0 0 24 9.176a.711.711 0 0 0-.716-.705zM19.753 4.89a.719.719 0 0 0 .506-.206l1.013-.998a.698.698 0 0 0 0-.998.724.724 0 0 0-1.013 0l-1.013.998a.698.698 0 0 0 0 .998c.14.138.323.207.507.207zM9.114 4.684a.719.719 0 0 0 1.013 0 .698.698 0 0 0 0-.998l-1.013-.998a.724.724 0 0 0-1.013 0 .698.698 0 0 0 0 .998l1.013.998z"/>
        <path fill-rule="nonzero" d="M19.184 11.36c.339-.676.517-1.42.517-2.184 0-2.724-2.25-4.94-5.014-4.94a5.048 5.048 0 0 0-4.118 2.124c-.06-.001-.12-.007-.18-.007-2.746 0-5.094 1.769-5.843 4.3a3.614 3.614 0 0 0-.605-.065C1.768 10.588 0 12.33 0 14.471c0 2.14 1.767 3.882 3.94 3.882h.716a.711.711 0 0 0 .716-.706.711.711 0 0 0-.716-.706H3.94c-1.383 0-2.508-1.108-2.508-2.47S2.558 12 3.941 12c.099 0 .259.024.427.057v.649c0 .39.321.706.716.706a.711.711 0 0 0 .717-.706V11.57c.384-2.207 2.305-3.805 4.587-3.805 2.283 0 4.204 1.599 4.588 3.807v1.134c0 .39.321.706.716.706a.711.711 0 0 0 .717-.706v-.648c.169-.034.329-.058.427-.058 1.383 0 2.508 1.109 2.508 2.47 0 1.363-1.125 2.471-2.508 2.471h-.717a.711.711 0 0 0-.716.706c0 .39.32.706.716.706h.717c2.173 0 3.94-1.742 3.94-3.882a3.856 3.856 0 0 0-1.592-3.11zm-2.953-.707a6 6 0 0 0-4.016-4.024 3.615 3.615 0 0 1 2.472-.982c1.975 0 3.582 1.583 3.582 3.53 0 .546-.13 1.076-.371 1.558a3.976 3.976 0 0 0-1.062-.147c-.182 0-.398.028-.605.065z"/>
        <path d="M11.104 17.647v-4.235a.711.711 0 0 0-.716-.706.711.711 0 0 0-.716.706v4.235c0 .39.32.706.716.706a.711.711 0 0 0 .716-.706zM7.88 19.765v-4.236a.711.711 0 0 0-.716-.705.711.711 0 0 0-.716.705v4.236c0 .39.32.706.716.706a.711.711 0 0 0 .717-.706zM14.328 19.765v-4.236a.711.711 0 0 0-.716-.705.711.711 0 0 0-.716.705v4.236c0 .39.32.706.716.706a.711.711 0 0 0 .716-.706zM7.522 21.882h-.716a.711.711 0 0 0-.716.706v.706c0 .39.32.706.716.706h.716a.711.711 0 0 0 .717-.706v-.706a.711.711 0 0 0-.717-.706zM10.746 19.765h-.716a.711.711 0 0 0-.717.706v.705c0 .39.321.706.717.706h.716a.711.711 0 0 0 .717-.706v-.705a.711.711 0 0 0-.717-.706zM13.97 21.882h-.716a.711.711 0 0 0-.717.706v.706c0 .39.32.706.717.706h.716a.711.711 0 0 0 .717-.706v-.706a.711.711 0 0 0-.717-.706z"/>
    </g>
</svg>
