<svg xmlns="http://www.w3.org/2000/svg" width="20" height="18" viewBox="0 0 20 18">
    <g fill="#000" fill-rule="evenodd">
        <path d="M16.207 4.154a3.41 3.41 0 0 0-.582.064A5.838 5.838 0 0 0 10 0a5.837 5.837 0 0 0-5.624 4.218 3.417 3.417 0 0 0-.583-.064C1.702 4.154 0 5.862 0 7.962c0 2.099 1.702 3.807 3.793 3.807a.691.691 0 0 0 0-1.384A2.421 2.421 0 0 1 1.38 7.962a2.421 2.421 0 0 1 2.414-2.424c.096 0 .25.024.411.057v.636c0 .382.31.692.69.692.38 0 .69-.31.69-.692V5.116A4.466 4.466 0 0 1 10 1.385a4.466 4.466 0 0 1 4.416 3.73v1.116c0 .382.31.692.69.692.38 0 .69-.31.69-.692v-.636c.162-.033.315-.057.41-.057a2.422 2.422 0 0 1 2.415 2.424 2.422 2.422 0 0 1-2.414 2.423.691.691 0 0 0 0 1.384c2.091 0 3.793-1.708 3.793-3.807 0-2.1-1.702-3.808-3.793-3.808z"/>
        <path d="M10.512 8.328a.689.689 0 0 0-.836.504l-2.07 8.308a.693.693 0 0 0 .67.86.69.69 0 0 0 .669-.524l2.069-8.308a.692.692 0 0 0-.502-.84zM13.27 10.405a.689.689 0 0 0-.836.504L11.4 15.063a.693.693 0 0 0 .67.86.69.69 0 0 0 .668-.524l1.034-4.154a.692.692 0 0 0-.502-.84zM6.719 10.405a.69.69 0 0 0-.837.504l-1.034 4.154a.693.693 0 0 0 .67.86.69.69 0 0 0 .668-.524l1.035-4.154a.692.692 0 0 0-.502-.84z"/>
    </g>
</svg>
