<svg xmlns="http://www.w3.org/2000/svg" width="20" height="22" viewBox="0 0 20 22">
    <path fill="#000" fill-rule="nonzero" d="M19.635 15.561l-2.219-1.233 1.263-.325a.685.685 0 0 0 .505-.842.716.716 0 0 0-.875-.486l-2.642.681-1.962-1.09 2.333-.602a.695.695 0 0 0 .528-.617.685.685 0 0 0-.435-.68l-2.058-.837 1.594-.886 2.642.68a.735.735 0 0 0 .185.025.711.711 0 0 0 .69-.51.685.685 0 0 0-.505-.842l-1.262-.325 2.218-1.233a.674.674 0 0 0 .262-.939.73.73 0 0 0-.976-.252l-2.218 1.233.338-1.214a.685.685 0 0 0-.505-.842.715.715 0 0 0-.875.487l-.707 2.541-1.594.886.275-2.134a.68.68 0 0 0-.351-.68.739.739 0 0 0-.788.047l-1.781 1.296v-1.77l1.933-1.86a.67.67 0 0 0 0-.973.734.734 0 0 0-1.01 0l-.923.888V.687C10.715.308 10.395 0 10 0a.701.701 0 0 0-.714.688v2.466l-.924-.89a.734.734 0 0 0-1.01 0 .67.67 0 0 0 0 .972l1.934 1.862v1.77L7.504 5.57a.736.736 0 0 0-.83-.022.675.675 0 0 0-.291.748l.626 2.248-1.962-1.09-.708-2.542a.717.717 0 0 0-.875-.486.685.685 0 0 0-.505.842l.338 1.213L1.079 5.25a.729.729 0 0 0-.976.251.674.674 0 0 0 .261.94l2.218 1.232-1.26.325a.685.685 0 0 0-.506.842.71.71 0 0 0 .69.51.75.75 0 0 0 .185-.024l2.641-.681 1.962 1.09-2.332.602a.694.694 0 0 0-.528.616.685.685 0 0 0 .435.68l2.057.838-1.594.886-2.64-.681a.717.717 0 0 0-.874.486.685.685 0 0 0 .505.842l1.26.325L.364 15.56a.674.674 0 0 0-.261.939.73.73 0 0 0 .976.252l2.218-1.233-.338 1.215a.685.685 0 0 0 .505.842.733.733 0 0 0 .185.023.711.711 0 0 0 .69-.51l.708-2.543 1.593-.885-.276 2.134a.68.68 0 0 0 .352.68c.248.138.56.12.788-.047l1.78-1.296v1.772l-1.933 1.86a.67.67 0 0 0 0 .973.734.734 0 0 0 1.01 0l.924-.89v2.466c0 .38.32.688.714.688a.702.702 0 0 0 .714-.688v-2.465l.923.89c.14.133.323.2.505.2a.726.726 0 0 0 .506-.2.67.67 0 0 0 0-.973l-1.934-1.86v-1.772l1.784 1.299a.731.731 0 0 0 .83.022.675.675 0 0 0 .29-.75l-.626-2.246 1.962 1.09.707 2.542a.71.71 0 0 0 .69.51.735.735 0 0 0 .185-.024.685.685 0 0 0 .505-.842l-.337-1.213 2.217 1.232a.733.733 0 0 0 .975-.251.674.674 0 0 0-.261-.94zm-5.975-4.707l-1.705.44-.528-.294 1.096-.609 1.137.463zm-1.651-3.205l-.2 1.551-1.095.609V8.592l1.295-.943zM8.3 7.875l.985.717V9.81l-.528-.294L8.3 7.875zm-1.962 3.271l1.703-.44.528.294-1.094.609-1.137-.463zm1.651 3.205l.2-1.552 1.097-.609v1.217l-1.297.944zm3.71-.226l-.985-.716v-1.217l.528.293.457 1.64z"/>
</svg>
