<?xml version="1.0" encoding="UTF-8"?>
<svg width="38px" height="38px" viewBox="0 0 38 38" version="1.1" xmlns="http://www.w3.org/2000/svg" xmlns:xlink="http://www.w3.org/1999/xlink">
    <!-- Generator: sketchtool 52.6 (67491) - http://www.bohemiancoding.com/sketch -->
    <title>5ADFDFE4-99D5-470E-8A4C-74AB93776BC7</title>
    <desc>Created with sketchtool.</desc>
    <g id="Dashboard" stroke="none" stroke-width="1" fill="none" fill-rule="evenodd">
        <g id="Dashboard-/-Default" transform="translate(-1290.000000, -383.000000)">
            <g id="box-usersonline" transform="translate(1050.000000, 368.000000)">
                <g id="icon-usersonline" transform="translate(241.000000, 16.000000)">
                    <circle id="bg-icon" stroke="#455A64" stroke-width="2" fill="#CFD8DC" fill-rule="nonzero" cx="18" cy="18" r="18"></circle>
                    <path d="M18,18 C20.2,18 22,16.2 22,14 C22,11.8 20.2,10 18,10 C15.8,10 14,11.8 14,14 C14,16.2 15.8,18 18,18 L18,18 Z M18,20 C15.3,20 10,21.3 10,24 L10,26 L26,26 L26,24 C26,21.3 20.7,20 18,20 L18,20 Z" id="icon-person" fill="#455A64"></path>
                </g>
            </g>
        </g>
    </g>
</svg>