<?xml version="1.0" encoding="UTF-8"?>
<svg width="38px" height="38px" viewBox="0 0 38 38" version="1.1" xmlns="http://www.w3.org/2000/svg" xmlns:xlink="http://www.w3.org/1999/xlink">
    <!-- Generator: sketchtool 52.6 (67491) - http://www.bohemiancoding.com/sketch -->
    <title>E4870A6C-C877-442B-8DBA-AEE21EFA867E</title>
    <desc>Created with sketchtool.</desc>
    <g id="Dashboard" stroke="none" stroke-width="1" fill="none" fill-rule="evenodd">
        <g id="Dashboard-/-Default" transform="translate(-345.000000, -383.000000)">
            <g id="box-messages" transform="translate(105.000000, 368.000000)">
                <g id="icon-messages" transform="translate(241.000000, 16.000000)">
                    <circle id="bg-icon" stroke="#0097A7" stroke-width="2" fill="#B2EBF2" fill-rule="nonzero" cx="18" cy="18" r="18"></circle>
                    <path d="M26,11 L10,11 C8.9,11 8,11.9 8,13 L8,25 C8,26.1 8.9,27 10,27 L26,27 C27.1,27 28,26.1 28,25 L28,13 C28,11.9 27.1,11 26,11 L26,11 Z M26,15 L18,20 L10,15 L10,13 L18,18 L26,13 L26,15 L26,15 Z" id="icon-mail" fill="#0097A7"></path>
                </g>
            </g>
        </g>
    </g>
</svg>